<?xml version="1.0" encoding="UTF-8"?>
<!-- Generator: Adobe Illustrator 26.2.1, SVG Export Plug-In . SVG Version: 6.00 Build 0)  -->
<svg version="1.1" id="Layer_1" xmlns="http://www.w3.org/2000/svg" xmlns:xlink="http://www.w3.org/1999/xlink" x="0px" y="0px" viewBox="0 0 300.1 142.8" style="enable-background:new 0 0 300.1 142.8;" xml:space="preserve">
<style type="text/css">
	.st0{fill:#282828;}
</style>
<path class="st0" d="M47.4,0v101.5l-23.8,41.3H0V119h23.6V47.7L0,88.5V40.9L23.6,0H47.4z M94.4,0L94.4,0c-9.9,0-19,5.3-23.9,13.8  L54.9,40.9v47.7l36.3-62.8c0.7-1.2,1.9-1.9,3.2-1.9c2.9,0,4.7,3.1,3.2,5.6L32.2,142.8h73.5l13.8-23.8h-46l44.8-77.6  C128.9,23,115.7,0,94.4,0z M134.2,111.5c9.2,0,16.4-2.5,21.5-7.5s7.7-12.2,7.7-21.4V46.9h-17.3V82c0,9.9-3.9,14.9-11.7,14.9  c-7.9,0-11.8-5-11.8-14.9V49L105,79.5v3.1c0,9.2,2.6,16.4,7.7,21.4C117.8,109,125,111.5,134.2,111.5z M211,48.1v33.1l-28.5-34.4  h-13.4v64.6h17.2V77.1l28.5,34.4h13.4V48.1H211z M265.5,111.5c6.6,0,12.5-1.4,17.7-4.2c5.2-2.8,9.3-6.6,12.3-11.5s4.5-10.4,4.5-16.6  s-1.5-11.7-4.5-16.6s-7.1-8.8-12.3-11.5c-5.2-2.8-11.1-4.2-17.7-4.2s-12.5,1.4-17.7,4.2s-9.4,6.6-12.3,11.5  c-3,4.9-4.5,10.4-4.5,16.6s1.5,11.7,4.5,16.6s7.1,8.8,12.3,11.5C253.1,110.1,259,111.5,265.5,111.5z M265.5,96.9  c-3.1,0-6-0.7-8.5-2.2s-4.6-3.6-6-6.3c-1.5-2.7-2.2-5.8-2.2-9.3s0.7-6.6,2.2-9.3c1.5-2.7,3.5-4.8,6-6.3c2.5-1.5,5.4-2.2,8.5-2.2  s6,0.7,8.5,2.2c2.5,1.5,4.6,3.6,6,6.3c1.5,2.7,2.2,5.8,2.2,9.3s-0.7,6.6-2.2,9.3c-1.5,2.7-3.5,4.8-6,6.3  C271.5,96.2,268.7,96.9,265.5,96.9z M127,137.5h2.4l-3.6-8.2h-2.3l-3.6,8.2h2.4l0.6-1.6h3.5L127,137.5z M123.5,134.2l1.1-2.6  l1.1,2.6H123.5z M139.1,135.5c-0.4,0.2-0.8,0.3-1.3,0.3s-0.9-0.1-1.2-0.3c-0.4-0.2-0.6-0.5-0.8-0.8c-0.2-0.4-0.3-0.8-0.3-1.2  c0-0.7,0.2-1.3,0.6-1.7c0.4-0.4,1-0.6,1.7-0.6c0.8,0,1.4,0.3,2,0.9l1.5-1.3c-0.4-0.5-0.9-0.9-1.5-1.1c-0.6-0.3-1.3-0.4-2.1-0.4  c-0.9,0-1.7,0.2-2.4,0.5c-0.7,0.4-1.2,0.9-1.6,1.5c-0.4,0.6-0.6,1.4-0.6,2.2s0.2,1.6,0.6,2.2c0.4,0.6,0.9,1.2,1.6,1.5  c0.7,0.4,1.5,0.5,2.3,0.5c0.6,0,1.2-0.1,1.8-0.3s1.1-0.4,1.6-0.8v-3.4h-2L139.1,135.5L139.1,135.5z M148.7,135.7v-1.5h3.6v-1.7h-3.6  v-1.4h4.1v-1.8h-6.4v8.2h6.6v-1.8H148.7z M163.6,129.3v4.4l-3.6-4.4h-2v8.2h2.3v-4.4l3.6,4.4h1.9v-8.2H163.6z M175.3,137.7  c0.7,0,1.4-0.1,2-0.4c0.6-0.3,1.1-0.6,1.5-1.1l-1.5-1.3c-0.5,0.6-1.2,1-1.9,1c-0.4,0-0.8-0.1-1.2-0.3c-0.3-0.2-0.6-0.5-0.8-0.8  c-0.2-0.4-0.3-0.8-0.3-1.2c0-0.5,0.1-0.9,0.3-1.2c0.2-0.4,0.5-0.6,0.8-0.8s0.7-0.3,1.2-0.3c0.8,0,1.4,0.3,1.9,1l1.5-1.3  c-0.4-0.5-0.9-0.9-1.5-1.1c-0.6-0.3-1.3-0.4-2-0.4c-0.9,0-1.6,0.2-2.3,0.5c-0.7,0.4-1.2,0.9-1.6,1.5c-0.4,0.6-0.6,1.4-0.6,2.2  s0.2,1.6,0.6,2.2c0.4,0.6,0.9,1.2,1.6,1.5C173.7,137.5,174.4,137.7,175.3,137.7z M183.6,137.5h2.3v-8.2h-2.3V137.5z M197.5,137.5  h2.4l-3.6-8.2H194l-3.6,8.2h2.4l0.6-1.6h3.5L197.5,137.5z M194,134.2l1.1-2.6l1.1,2.6H194z M215.5,137.7c0.7,0,1.4-0.1,2-0.4  c0.6-0.3,1.1-0.6,1.5-1.1l-1.5-1.3c-0.5,0.6-1.2,1-1.9,1c-0.4,0-0.8-0.1-1.2-0.3c-0.3-0.2-0.6-0.5-0.8-0.8c-0.2-0.4-0.3-0.8-0.3-1.2  c0-0.5,0.1-0.9,0.3-1.2c0.2-0.4,0.5-0.6,0.8-0.8s0.7-0.3,1.2-0.3c0.8,0,1.4,0.3,1.9,1l1.5-1.3c-0.4-0.5-0.9-0.9-1.5-1.1  c-0.6-0.3-1.3-0.4-2-0.4c-0.9,0-1.6,0.2-2.3,0.5c-0.7,0.4-1.2,0.9-1.6,1.5c-0.4,0.6-0.6,1.4-0.6,2.2s0.2,1.6,0.6,2.2  c0.4,0.6,0.9,1.2,1.6,1.5C213.9,137.5,214.7,137.7,215.5,137.7z M228.9,137.5h2.5l-1.8-2.6c0.5-0.2,0.9-0.6,1.2-1s0.4-1,0.4-1.6  s-0.1-1.2-0.4-1.6c-0.3-0.5-0.7-0.8-1.3-1.1c-0.5-0.2-1.2-0.4-1.9-0.4h-3.7v8.2h2.3v-2.2h1.3L228.9,137.5z M228.9,132.3  c0,0.4-0.1,0.7-0.4,0.9c-0.2,0.2-0.6,0.3-1.1,0.3h-1.3v-2.4h1.3c0.5,0,0.8,0.1,1.1,0.3C228.7,131.6,228.9,131.9,228.9,132.3z   M238.5,135.7v-1.5h3.6v-1.7h-3.6v-1.4h4.1v-1.8h-6.4v8.2h6.6v-1.8H238.5z M254,137.5h2.4l-3.6-8.2h-2.3l-3.6,8.2h2.4l0.6-1.6h3.5  L254,137.5z M250.5,134.2l1.1-2.6l1.1,2.6H250.5z M262.1,137.5h2.3v-6.4h2.5v-1.8h-7.3v1.8h2.5V137.5z M271.6,137.5h2.3v-8.2h-2.3  V137.5z M285.3,129.3l-2.3,5.3l-2.2-5.3h-2.5l3.5,8.2h2.3l3.5-8.2H285.3z M297.7,137.5h2.4l-3.6-8.2h-2.3l-3.6,8.2h2.4l0.6-1.6h3.5  L297.7,137.5z M294.2,134.2l1.1-2.6l1.1,2.6H294.2z"/>
</svg>