<?xml version="1.0" encoding="UTF-8" standalone="no"?>
<!-- Generator: Adobe Illustrator 26.2.1, SVG Export Plug-In . SVG Version: 6.00 Build 0)  -->

<svg
   version="1.1"
   id="Layer_1"
   x="0px"
   y="0px"
   viewBox="0 0 24 24"
   style="enable-background:new 0 0 24 24;"
   xml:space="preserve"
   sodipodi:docname="facebook_white.svg"
   inkscape:version="1.2.1 (9c6d41e410, 2022-07-14)"
   xmlns:inkscape="http://www.inkscape.org/namespaces/inkscape"
   xmlns:sodipodi="http://sodipodi.sourceforge.net/DTD/sodipodi-0.dtd"
   xmlns="http://www.w3.org/2000/svg"
   xmlns:svg="http://www.w3.org/2000/svg"><defs
   id="defs488" /><sodipodi:namedview
   id="namedview486"
   pagecolor="#ffffff"
   bordercolor="#000000"
   borderopacity="0.25"
   inkscape:showpageshadow="2"
   inkscape:pageopacity="0.0"
   inkscape:pagecheckerboard="0"
   inkscape:deskcolor="#d1d1d1"
   showgrid="false"
   inkscape:zoom="12.91943"
   inkscape:cx="13.081072"
   inkscape:cy="25.542922"
   inkscape:window-width="1920"
   inkscape:window-height="1057"
   inkscape:window-x="-8"
   inkscape:window-y="-8"
   inkscape:window-maximized="1"
   inkscape:current-layer="Layer_1" />
<path
   d="M23,0H1C0.4,0,0,0.4,0,1V23c0,0.5,0.4,1,1,1H23c0.5,0,1-0.4,1-1V1C24,0.4,23.6,0,23,0z M20.3,7h-1.9c-1.5,0-1.8,0.7-1.8,1.8  v2.3h3.6l-0.5,3.6h-3.1V24h-3.7v-9.3H9.7v-3.6h3.1V8.4c0-3.1,1.9-4.8,4.7-4.8c1.3,0,2.5,0.1,2.8,0.1L20.3,7L20.3,7z"
   id="path483"
   style="fill:#ffffff" />
</svg>
