<?xml version="1.0" encoding="UTF-8" standalone="no"?>
<!-- Generator: Adobe Illustrator 26.2.1, SVG Export Plug-In . SVG Version: 6.00 Build 0)  -->

<svg
   version="1.1"
   id="Layer_1"
   x="0px"
   y="0px"
   viewBox="0 0 24 24"
   style="enable-background:new 0 0 24 24;"
   xml:space="preserve"
   sodipodi:docname="instagram_white.svg"
   inkscape:version="1.2.1 (9c6d41e410, 2022-07-14)"
   xmlns:inkscape="http://www.inkscape.org/namespaces/inkscape"
   xmlns:sodipodi="http://sodipodi.sourceforge.net/DTD/sodipodi-0.dtd"
   xmlns="http://www.w3.org/2000/svg"
   xmlns:svg="http://www.w3.org/2000/svg"><defs
   id="defs18" /><sodipodi:namedview
   id="namedview16"
   pagecolor="#ffffff"
   bordercolor="#000000"
   borderopacity="0.25"
   inkscape:showpageshadow="2"
   inkscape:pageopacity="0.0"
   inkscape:pagecheckerboard="0"
   inkscape:deskcolor="#d1d1d1"
   showgrid="false"
   inkscape:lockguides="false"
   inkscape:zoom="4"
   inkscape:cx="47"
   inkscape:cy="43"
   inkscape:window-width="1920"
   inkscape:window-height="1057"
   inkscape:window-x="-8"
   inkscape:window-y="-8"
   inkscape:window-maximized="1"
   inkscape:current-layer="Layer_1" />
<style
   type="text/css"
   id="style11">
	.st0{fill-rule:evenodd;clip-rule:evenodd;}
</style>
<path
   class="st0"
   d="M7.5,1.1C8.6,1,9,1,12,1s3.4,0,4.5,0.1s2,0.2,2.7,0.5c0.7,0.3,1.4,0.7,1.9,1.3c0.6,0.5,1,1.2,1.3,1.9  c0.3,0.7,0.5,1.5,0.5,2.7C23,8.6,23,9,23,12c0,3,0,3.4-0.1,4.5c-0.1,1.2-0.2,2-0.5,2.7c-0.3,0.7-0.7,1.4-1.3,1.9  c-0.5,0.6-1.2,1-1.9,1.3c-0.7,0.3-1.5,0.5-2.7,0.5C15.4,23,15,23,12,23s-3.4,0-4.5-0.1c-1.2-0.1-2-0.2-2.7-0.5  c-0.7-0.3-1.4-0.7-1.9-1.3c-0.6-0.5-1-1.2-1.3-1.9c-0.3-0.7-0.5-1.5-0.5-2.7C1,15.4,1,15,1,12c0-3,0-3.4,0.1-4.5s0.2-2,0.5-2.7  c0.3-0.7,0.7-1.4,1.3-1.9c0.5-0.6,1.2-1,1.9-1.3C5.5,1.3,6.3,1.1,7.5,1.1L7.5,1.1z M16.4,3C15.3,3,14.9,3,12,3S8.7,3,7.6,3  c-1.1,0-1.7,0.2-2,0.4C5,3.6,4.6,3.9,4.2,4.2C3.9,4.6,3.6,5,3.4,5.5c-0.2,0.4-0.3,1-0.4,2C3,8.7,3,9.1,3,12s0,3.3,0.1,4.4  c0,1.1,0.2,1.7,0.4,2c0.2,0.5,0.5,0.9,0.8,1.3c0.4,0.4,0.8,0.6,1.3,0.8c0.4,0.2,1,0.3,2,0.4C8.7,21,9.1,21,12,21s3.3,0,4.4-0.1  c1.1,0,1.7-0.2,2-0.4c0.5-0.2,0.9-0.4,1.3-0.8c0.4-0.4,0.6-0.8,0.8-1.3c0.2-0.4,0.3-1,0.4-2C21,15.3,21,14.9,21,12s0-3.3-0.1-4.4  c0-1.1-0.2-1.7-0.4-2c-0.2-0.5-0.4-0.9-0.8-1.3c-0.4-0.4-0.8-0.6-1.3-0.8C18.1,3.3,17.5,3.1,16.4,3L16.4,3z M10.6,15.4  c0.8,0.3,1.7,0.4,2.5,0.1c0.8-0.2,1.5-0.8,2-1.5c0.5-0.7,0.7-1.6,0.6-2.4c-0.1-0.8-0.5-1.6-1.1-2.2c-0.4-0.4-0.8-0.7-1.4-0.9  c-0.5-0.2-1.1-0.2-1.6-0.2c-0.5,0.1-1.1,0.2-1.5,0.5C9.6,9.1,9.3,9.5,8.9,10c-0.3,0.5-0.5,1-0.6,1.5c-0.1,0.5,0,1.1,0.1,1.6  c0.2,0.5,0.4,1,0.8,1.4C9.6,14.9,10.1,15.2,10.6,15.4z M8,8c0.5-0.5,1.1-0.9,1.8-1.2c0.7-0.3,1.4-0.4,2.2-0.4s1.5,0.1,2.2,0.4  S15.5,7.5,16,8c0.5,0.5,0.9,1.1,1.2,1.8c0.3,0.7,0.4,1.4,0.4,2.2s-0.1,1.5-0.4,2.2c-0.3,0.7-0.7,1.3-1.2,1.8c-1.1,1.1-2.5,1.7-4,1.7  S9.1,17.1,8,16s-1.7-2.5-1.7-4S6.9,9.1,8,8L8,8z M18.9,7.2c0.1-0.1,0.2-0.3,0.3-0.4c0.1-0.2,0.1-0.3,0.1-0.5s0-0.4-0.1-0.5  c-0.1-0.2-0.2-0.3-0.3-0.4C18.8,5.1,18.7,5,18.5,5c-0.2-0.1-0.3-0.1-0.5-0.1c-0.2,0-0.4,0-0.5,0.1c-0.2,0.1-0.3,0.2-0.4,0.3  c-0.2,0.3-0.4,0.6-0.4,0.9c0,0.3,0.1,0.7,0.4,0.9c0.2,0.2,0.6,0.4,0.9,0.4S18.7,7.4,18.9,7.2L18.9,7.2z"
   id="path13"
   style="fill:#ffffff" />
</svg>
